<svg width="26" height="24" viewBox="0 0 26 24" fill="none" xmlns="http://www.w3.org/2000/svg">
<path d="M22.5364 3.96966C21.67 3.03246 20.1053 2.97471 19.0623 4.00889L8.85076 14.1339C8.58668 14.3957 8.58668 14.7293 8.85076 14.9911C9.11484 15.253 9.45124 15.253 9.71532 14.9911L18.1619 6.61612C18.6542 6.12797 19.4524 6.12797 19.9448 6.61612C20.4371 7.10428 20.4371 7.89574 19.9448 8.38389L11.4982 16.7589C10.2495 17.997 8.31662 17.997 7.06788 16.7589C5.81914 15.5207 5.81914 13.6043 7.06788 12.3661L17.2794 2.24112C19.2556 0.28171 22.467 0.217952 24.3764 2.26026C26.3333 4.22078 26.3909 7.38946 24.3392 9.27666L12.3807 21.1339C9.61911 23.872 5.29098 23.872 2.52942 21.1339C-0.232138 18.3957 -0.232138 14.1043 2.52942 11.3661L12.741 1.24112C13.2333 0.752969 14.0315 0.752969 14.5238 1.24112C15.0162 1.72928 15.0162 2.52074 14.5238 3.00889L4.3123 13.1339C2.53539 14.8957 2.53539 17.6043 4.3123 19.3661C6.0892 21.128 8.82089 21.128 10.5978 19.3661L22.5743 7.49112C22.5872 7.47832 22.6004 7.4658 22.6139 7.45357C23.5591 6.59446 23.6173 5.04307 22.5743 4.00889C22.5614 3.99609 22.5488 3.98301 22.5364 3.96966Z" fill="#3469F3"/>
</svg>
